<svg width="52" height="52" viewBox="0 0 52 52" fill="none" xmlns="http://www.w3.org/2000/svg">
<path d="M41.1667 30.334V21.334C41.1667 19.4484 41.1667 18.5056 40.5809 17.9198C39.9951 17.334 39.0523 17.334 37.1667 17.334H27.6569C26.8394 17.334 26.4306 17.334 26.0631 17.1817C25.6955 17.0295 25.4065 16.7405 24.8284 16.1624L20.6716 12.0056C20.0935 11.4275 19.8045 11.1385 19.4369 10.9862C19.0694 10.834 18.6606 10.834 17.8431 10.834H10.5C8.61438 10.834 7.67157 10.834 7.08579 11.4198C6.5 12.0056 6.5 12.9484 6.5 14.834V37.1673C6.5 39.0529 6.5 39.9957 7.08579 40.5815C7.67157 41.1673 8.61438 41.1673 10.5 41.1673H30.3333" stroke="#E1E1E2" stroke-width="3"/>
<path d="M34.6667 41.166H41.1667M41.1667 41.166H47.6667M41.1667 41.166V47.666M41.1667 41.166V34.666" stroke="#E1E1E2" stroke-width="3"/>
<path d="M14.9235 32.668V30.82H16.7715V32.668H14.9235ZM20.1692 35.068C19.6492 35.068 19.1972 35.016 18.8132 34.912C18.4292 34.808 18.1292 34.652 17.9132 34.444C17.7052 34.236 17.6012 33.972 17.6012 33.652C17.6012 33.436 17.6452 33.24 17.7332 33.064C17.8292 32.896 17.9572 32.748 18.1172 32.62C18.2852 32.484 18.4732 32.368 18.6812 32.272C18.3772 32.184 18.1412 32.052 17.9732 31.876C17.8052 31.7 17.7212 31.464 17.7212 31.168C17.7212 30.888 17.7892 30.648 17.9252 30.448C18.0612 30.24 18.2492 30.032 18.4892 29.824C18.2652 29.624 18.0932 29.38 17.9732 29.092C17.8612 28.796 17.8052 28.44 17.8052 28.024C17.8052 27.504 17.9012 27.064 18.0932 26.704C18.2852 26.344 18.5652 26.072 18.9332 25.888C19.3092 25.704 19.7612 25.612 20.2892 25.612C20.6492 25.612 20.9652 25.656 21.2372 25.744C21.5092 25.832 21.7412 25.968 21.9332 26.152C22.0212 26.016 22.1372 25.884 22.2812 25.756C22.4252 25.628 22.5892 25.52 22.7732 25.432L23.0252 25.312L23.4812 26.248C23.4092 26.272 23.3092 26.312 23.1812 26.368C23.0532 26.424 22.9172 26.484 22.7732 26.548C22.6372 26.612 22.5132 26.676 22.4012 26.74C22.4892 26.916 22.5572 27.116 22.6052 27.34C22.6532 27.564 22.6772 27.796 22.6772 28.036C22.6772 28.532 22.5852 28.96 22.4012 29.32C22.2252 29.68 21.9612 29.956 21.6092 30.148C21.2572 30.332 20.8172 30.424 20.2892 30.424C20.0652 30.424 19.8532 30.408 19.6532 30.376C19.4532 30.336 19.2692 30.288 19.1012 30.232C19.0532 30.296 19.0092 30.364 18.9692 30.436C18.9372 30.5 18.9212 30.572 18.9212 30.652C18.9212 30.748 18.9692 30.824 19.0652 30.88C19.1612 30.936 19.3332 30.98 19.5812 31.012L21.4052 31.216C21.9972 31.28 22.4332 31.472 22.7132 31.792C22.9932 32.104 23.1332 32.516 23.1332 33.028C23.1332 33.468 23.0332 33.84 22.8332 34.144C22.6412 34.448 22.3252 34.676 21.8852 34.828C21.4532 34.988 20.8812 35.068 20.1692 35.068ZM20.4212 33.652C20.8612 33.652 21.1972 33.616 21.4292 33.544C21.6692 33.472 21.7892 33.324 21.7892 33.1C21.7892 32.988 21.7572 32.896 21.6932 32.824C21.6292 32.76 21.5212 32.708 21.3692 32.668C21.2252 32.62 21.0172 32.584 20.7452 32.56L19.4612 32.428C19.3812 32.484 19.3092 32.548 19.2452 32.62C19.1892 32.684 19.1412 32.752 19.1012 32.824C19.0692 32.904 19.0532 32.988 19.0532 33.076C19.0532 33.268 19.1572 33.412 19.3652 33.508C19.5732 33.604 19.9252 33.652 20.4212 33.652ZM20.2892 29.26C20.4012 29.26 20.4932 29.24 20.5652 29.2C20.6372 29.152 20.6892 29.08 20.7212 28.984C20.7612 28.888 20.7892 28.76 20.8052 28.6C20.8212 28.44 20.8292 28.248 20.8292 28.024C20.8292 27.792 20.8212 27.6 20.8052 27.448C20.7892 27.288 20.7612 27.16 20.7212 27.064C20.6892 26.96 20.6372 26.888 20.5652 26.848C20.4932 26.8 20.4012 26.776 20.2892 26.776C20.1772 26.776 20.0852 26.8 20.0132 26.848C19.9412 26.888 19.8852 26.956 19.8452 27.052C19.8132 27.148 19.7892 27.276 19.7732 27.436C19.7572 27.596 19.7492 27.792 19.7492 28.024C19.7492 28.248 19.7572 28.44 19.7732 28.6C19.7892 28.752 19.8132 28.88 19.8452 28.984C19.8852 29.08 19.9412 29.152 20.0132 29.2C20.0852 29.24 20.1772 29.26 20.2892 29.26ZM24.0089 32.668V22.948H25.9529V32.668H24.0089ZM30.6619 32.788C30.4059 32.788 30.1499 32.732 29.8939 32.62C29.6459 32.5 29.4059 32.34 29.1739 32.14V32.668H27.2179V22.948H29.1739V26.236C29.4139 26.028 29.6619 25.872 29.9179 25.768C30.1819 25.664 30.4379 25.612 30.6859 25.612C30.9499 25.612 31.1739 25.664 31.3579 25.768C31.5499 25.872 31.7059 26.02 31.8259 26.212C31.9459 26.396 32.0339 26.612 32.0899 26.86C32.1459 27.108 32.1739 27.372 32.1739 27.652V30.64C32.1739 31.072 32.1139 31.448 31.9939 31.768C31.8819 32.088 31.7139 32.34 31.4899 32.524C31.2659 32.7 30.9899 32.788 30.6619 32.788ZM29.7139 31.528C29.8419 31.528 29.9419 31.492 30.0139 31.42C30.0859 31.348 30.1379 31.256 30.1699 31.144C30.2019 31.024 30.2179 30.892 30.2179 30.748V27.508C30.2179 27.372 30.2019 27.252 30.1699 27.148C30.1379 27.036 30.0859 26.948 30.0139 26.884C29.9499 26.82 29.8579 26.788 29.7379 26.788C29.6339 26.788 29.5339 26.812 29.4379 26.86C29.3499 26.9 29.2619 26.952 29.1739 27.016V31.336C29.2619 31.392 29.3499 31.44 29.4379 31.48C29.5339 31.512 29.6259 31.528 29.7139 31.528Z" fill="#E1E1E2"/>
</svg>
