<svg width="52" height="52" viewBox="0 0 52 52" fill="none" xmlns="http://www.w3.org/2000/svg">
<mask id="path-1-inside-1_194_791" fill="white">
<path fill-rule="evenodd" clip-rule="evenodd" d="M33.8868 29.5991C34.3877 28.5031 34.6668 27.2845 34.6668 26.0007C34.6668 21.2142 30.7866 17.334 26.0002 17.334C24.7164 17.334 23.4977 17.6131 22.4017 18.114L25.6357 21.348C25.756 21.3387 25.8775 21.334 26.0002 21.334C28.5775 21.334 30.6668 23.4233 30.6668 26.0007C30.6668 26.1233 30.6621 26.2448 30.6528 26.3651L33.8868 29.5991ZM22.7232 22.6781C21.8653 23.5244 21.3335 24.7004 21.3335 26.0007C21.3335 28.578 23.4228 30.6673 26.0002 30.6673C27.3004 30.6673 28.4765 30.1355 29.3227 29.2776L32.1512 32.1061C30.581 33.6879 28.405 34.6673 26.0002 34.6673C21.2137 34.6673 17.3335 30.7871 17.3335 26.0007C17.3335 23.5958 18.313 21.4198 19.8947 19.8497L22.7232 22.6781Z"/>
</mask>
<path fill-rule="evenodd" clip-rule="evenodd" d="M33.8868 29.5991C34.3877 28.5031 34.6668 27.2845 34.6668 26.0007C34.6668 21.2142 30.7866 17.334 26.0002 17.334C24.7164 17.334 23.4977 17.6131 22.4017 18.114L25.6357 21.348C25.756 21.3387 25.8775 21.334 26.0002 21.334C28.5775 21.334 30.6668 23.4233 30.6668 26.0007C30.6668 26.1233 30.6621 26.2448 30.6528 26.3651L33.8868 29.5991ZM22.7232 22.6781C21.8653 23.5244 21.3335 24.7004 21.3335 26.0007C21.3335 28.578 23.4228 30.6673 26.0002 30.6673C27.3004 30.6673 28.4765 30.1355 29.3227 29.2776L32.1512 32.1061C30.581 33.6879 28.405 34.6673 26.0002 34.6673C21.2137 34.6673 17.3335 30.7871 17.3335 26.0007C17.3335 23.5958 18.313 21.4198 19.8947 19.8497L22.7232 22.6781Z" fill="#222222"/>
<path d="M33.8868 29.5991L31.0584 32.4275L35.1309 36.5001L37.5249 31.2617L33.8868 29.5991ZM22.4017 18.114L20.7391 14.4759L15.5008 16.8699L19.5733 20.9424L22.4017 18.114ZM25.6357 21.348L22.8073 24.1764L24.1087 25.4779L25.9438 25.3361L25.6357 21.348ZM30.6528 26.3651L26.6647 26.057L26.5229 27.8921L27.8244 29.1935L30.6528 26.3651ZM22.7232 22.6781L25.5321 25.5259L28.3995 22.6976L25.5516 19.8497L22.7232 22.6781ZM29.3227 29.2776L32.1511 26.4492L29.3032 23.6013L26.4749 26.4687L29.3227 29.2776ZM32.1512 32.1061L34.99 34.9241L37.7976 32.0957L34.9796 29.2777L32.1512 32.1061ZM19.8947 19.8497L22.7231 17.0212L19.9051 14.2032L17.0768 17.0108L19.8947 19.8497ZM37.5249 31.2617C38.2595 29.6543 38.6668 27.8696 38.6668 26.0007H30.6668C30.6668 26.6993 30.5159 27.3518 30.2487 27.9365L37.5249 31.2617ZM38.6668 26.0007C38.6668 19.005 32.9958 13.334 26.0002 13.334V21.334C28.5775 21.334 30.6668 23.4233 30.6668 26.0007H38.6668ZM26.0002 13.334C24.1312 13.334 22.3465 13.7413 20.7391 14.4759L24.0644 21.7521C24.649 21.4849 25.3015 21.334 26.0002 21.334V13.334ZM19.5733 20.9424L22.8073 24.1764L28.4641 18.5196L25.2301 15.2856L19.5733 20.9424ZM26.0002 17.334C25.7746 17.334 25.5503 17.3427 25.3276 17.3599L25.9438 25.3361C25.9617 25.3347 25.9804 25.334 26.0002 25.334V17.334ZM34.6668 26.0007C34.6668 21.2142 30.7866 17.334 26.0002 17.334V25.334C26.3684 25.334 26.6668 25.6325 26.6668 26.0007H34.6668ZM34.6409 26.6732C34.6581 26.4505 34.6668 26.2262 34.6668 26.0007H26.6668C26.6668 26.0204 26.6661 26.0392 26.6647 26.057L34.6409 26.6732ZM27.8244 29.1935L31.0584 32.4275L36.7152 26.7707L33.4812 23.5367L27.8244 29.1935ZM19.9142 19.8304C18.3256 21.3974 17.3335 23.5868 17.3335 26.0007H25.3335C25.3335 25.814 25.405 25.6513 25.5321 25.5259L19.9142 19.8304ZM17.3335 26.0007C17.3335 30.7871 21.2137 34.6673 26.0002 34.6673V26.6673C25.632 26.6673 25.3335 26.3688 25.3335 26.0007H17.3335ZM26.0002 34.6673C28.414 34.6673 30.6034 33.6752 32.1704 32.0866L26.4749 26.4687C26.3495 26.5959 26.1868 26.6673 26.0002 26.6673V34.6673ZM34.9796 29.2777L32.1511 26.4492L26.4943 32.1061L29.3227 34.9345L34.9796 29.2777ZM26.0002 38.6673C29.5139 38.6673 32.6997 37.2313 34.99 34.9241L29.3123 29.2881C28.4624 30.1444 27.2961 30.6673 26.0002 30.6673V38.6673ZM13.3335 26.0007C13.3335 32.9963 19.0046 38.6673 26.0002 38.6673V30.6673C23.4228 30.6673 21.3335 28.578 21.3335 26.0007H13.3335ZM17.0768 17.0108C14.7695 19.3011 13.3335 22.4869 13.3335 26.0007H21.3335C21.3335 24.7047 21.8564 23.5384 22.7127 22.6885L17.0768 17.0108ZM25.5516 19.8497L22.7231 17.0212L17.0663 22.6781L19.8948 25.5066L25.5516 19.8497Z" fill="#E1E1E2" mask="url(#path-1-inside-1_194_791)"/>
<path fill-rule="evenodd" clip-rule="evenodd" d="M39.6037 35.3156C42.7734 32.6982 45.1374 29.8279 46.3064 28.2913C46.3261 28.2653 46.3498 28.2353 46.3767 28.2012C46.6574 27.8455 47.2801 27.0561 47.2801 26C47.2801 24.9439 46.6574 24.1545 46.3767 23.7988C46.3498 23.7647 46.3261 23.7347 46.3064 23.7087C45.068 22.081 42.4887 18.9564 39.031 16.2214C35.6011 13.5085 31.0809 11 26.0001 11C22.9318 11 20.068 11.9148 17.5252 13.2371L20.5226 16.2345C22.2839 15.465 24.1261 15 26.0001 15C29.7802 15 33.4306 16.8916 36.5495 19.3587C39.5526 21.7341 41.8538 24.4778 43.0231 26C41.8814 27.4863 39.6605 30.1372 36.7608 32.4727L39.6037 35.3156ZM17.7599 17.7144C16.9638 18.2182 16.1923 18.7722 15.4508 19.3587C12.4477 21.7341 10.1465 24.4778 8.97721 26C10.1465 27.5222 12.4477 30.2659 15.4508 32.6413C18.5697 35.1084 22.2201 37 26.0001 37C28.9024 37 31.7283 35.8849 34.2958 34.2504L37.1831 37.1377C34.0426 39.2744 30.2142 41 26.0001 41C20.9194 41 16.3991 38.4915 12.9693 35.7786C9.51163 33.0436 6.93229 29.919 5.6939 28.2913C5.67416 28.2653 5.65044 28.2353 5.62359 28.2012C5.34292 27.8455 4.72021 27.0561 4.72021 26C4.72021 24.9439 5.34292 24.1545 5.62359 23.7988C5.65044 23.7647 5.67416 23.7347 5.6939 23.7087C6.93229 22.081 9.51163 18.9564 12.9693 16.2214C13.5707 15.7458 14.2056 15.2764 14.8711 14.8257L17.7599 17.7144Z" fill="#E1E1E2"/>
<path d="M11.4707 6.11719L46.1374 40.7839" stroke="#E1E1E2" stroke-width="4"/>
</svg>
